<svg xmlns="http://www.w3.org/2000/svg" viewBox="0 0 195 27" fill="white">
    <rect x="0" y="0" width="3" height="3"/>
    <rect x="4" y="0" width="3" height="3"/>
    <rect x="8" y="0" width="3" height="3"/>
    <rect x="12" y="0" width="3" height="3"/>
    <rect x="0" y="4" width="3" height="3"/>
    <rect x="16" y="4" width="3" height="3"/>
    <rect x="0" y="8" width="3" height="3"/>
    <rect x="16" y="8" width="3" height="3"/>
    <rect x="0" y="12" width="3" height="3"/>
    <rect x="4" y="12" width="3" height="3"/>
    <rect x="8" y="12" width="3" height="3"/>
    <rect x="12" y="12" width="3" height="3"/>
    <rect x="0" y="16" width="3" height="3"/>
    <rect x="16" y="16" width="3" height="3"/>
    <rect x="0" y="20" width="3" height="3"/>
    <rect x="16" y="20" width="3" height="3"/>
    <rect x="0" y="24" width="3" height="3"/>
    <rect x="4" y="24" width="3" height="3"/>
    <rect x="8" y="24" width="3" height="3"/>
    <rect x="12" y="24" width="3" height="3"/>
    <rect x="22" y="0" width="3" height="3"/>
    <rect x="22" y="4" width="3" height="3"/>
    <rect x="22" y="8" width="3" height="3"/>
    <rect x="22" y="12" width="3" height="3"/>
    <rect x="22" y="16" width="3" height="3"/>
    <rect x="22" y="20" width="3" height="3"/>
    <rect x="22" y="24" width="3" height="3"/>
    <rect x="26" y="24" width="3" height="3"/>
    <rect x="30" y="24" width="3" height="3"/>
    <rect x="34" y="24" width="3" height="3"/>
    <rect x="38" y="24" width="3" height="3"/>
    <rect x="48" y="0" width="3" height="3"/>
    <rect x="52" y="0" width="3" height="3"/>
    <rect x="56" y="0" width="3" height="3"/>
    <rect x="44" y="4" width="3" height="3"/>
    <rect x="60" y="4" width="3" height="3"/>
    <rect x="44" y="8" width="3" height="3"/>
    <rect x="60" y="8" width="3" height="3"/>
    <rect x="44" y="12" width="3" height="3"/>
    <rect x="60" y="12" width="3" height="3"/>
    <rect x="44" y="16" width="3" height="3"/>
    <rect x="60" y="16" width="3" height="3"/>
    <rect x="44" y="20" width="3" height="3"/>
    <rect x="60" y="20" width="3" height="3"/>
    <rect x="48" y="24" width="3" height="3"/>
    <rect x="52" y="24" width="3" height="3"/>
    <rect x="56" y="24" width="3" height="3"/>
    <rect x="66" y="0" width="3" height="3"/>
    <rect x="82" y="0" width="3" height="3"/>
    <rect x="66" y="4" width="3" height="3"/>
    <rect x="82" y="4" width="3" height="3"/>
    <rect x="70" y="8" width="3" height="3"/>
    <rect x="78" y="8" width="3" height="3"/>
    <rect x="74" y="12" width="3" height="3"/>
    <rect x="70" y="16" width="3" height="3"/>
    <rect x="78" y="16" width="3" height="3"/>
    <rect x="66" y="20" width="3" height="3"/>
    <rect x="82" y="20" width="3" height="3"/>
    <rect x="66" y="24" width="3" height="3"/>
    <rect x="82" y="24" width="3" height="3"/>
    <rect x="92" y="0" width="3" height="3"/>
    <rect x="96" y="0" width="3" height="3"/>
    <rect x="100" y="0" width="3" height="3"/>
    <rect x="104" y="0" width="3" height="3"/>
    <rect x="88" y="4" width="3" height="3"/>
    <rect x="88" y="8" width="3" height="3"/>
    <rect x="92" y="12" width="3" height="3"/>
    <rect x="96" y="12" width="3" height="3"/>
    <rect x="100" y="12" width="3" height="3"/>
    <rect x="104" y="16" width="3" height="3"/>
    <rect x="104" y="20" width="3" height="3"/>
    <rect x="88" y="24" width="3" height="3"/>
    <rect x="92" y="24" width="3" height="3"/>
    <rect x="96" y="24" width="3" height="3"/>
    <rect x="100" y="24" width="3" height="3"/>
    <rect x="110" y="0" width="3" height="3"/>
    <rect x="126" y="0" width="3" height="3"/>
    <rect x="110" y="4" width="3" height="3"/>
    <rect x="114" y="4" width="3" height="3"/>
    <rect x="122" y="4" width="3" height="3"/>
    <rect x="126" y="4" width="3" height="3"/>
    <rect x="110" y="8" width="3" height="3"/>
    <rect x="118" y="8" width="3" height="3"/>
    <rect x="126" y="8" width="3" height="3"/>
    <rect x="110" y="12" width="3" height="3"/>
    <rect x="126" y="12" width="3" height="3"/>
    <rect x="110" y="16" width="3" height="3"/>
    <rect x="126" y="16" width="3" height="3"/>
    <rect x="110" y="20" width="3" height="3"/>
    <rect x="126" y="20" width="3" height="3"/>
    <rect x="110" y="24" width="3" height="3"/>
    <rect x="126" y="24" width="3" height="3"/>
    <rect x="132" y="0" width="3" height="3"/>
    <rect x="136" y="0" width="3" height="3"/>
    <rect x="140" y="0" width="3" height="3"/>
    <rect x="144" y="0" width="3" height="3"/>
    <rect x="148" y="0" width="3" height="3"/>
    <rect x="140" y="4" width="3" height="3"/>
    <rect x="140" y="8" width="3" height="3"/>
    <rect x="140" y="12" width="3" height="3"/>
    <rect x="140" y="16" width="3" height="3"/>
    <rect x="140" y="20" width="3" height="3"/>
    <rect x="132" y="24" width="3" height="3"/>
    <rect x="136" y="24" width="3" height="3"/>
    <rect x="140" y="24" width="3" height="3"/>
    <rect x="144" y="24" width="3" height="3"/>
    <rect x="148" y="24" width="3" height="3"/>
    <rect x="154" y="0" width="3" height="3"/>
    <rect x="158" y="0" width="3" height="3"/>
    <rect x="162" y="0" width="3" height="3"/>
    <rect x="166" y="0" width="3" height="3"/>
    <rect x="170" y="0" width="3" height="3"/>
    <rect x="162" y="4" width="3" height="3"/>
    <rect x="162" y="8" width="3" height="3"/>
    <rect x="162" y="12" width="3" height="3"/>
    <rect x="162" y="16" width="3" height="3"/>
    <rect x="162" y="20" width="3" height="3"/>
    <rect x="162" y="24" width="3" height="3"/>
    <rect x="176" y="0" width="3" height="3"/>
    <rect x="192" y="0" width="3" height="3"/>
    <rect x="176" y="4" width="3" height="3"/>
    <rect x="192" y="4" width="3" height="3"/>
    <rect x="176" y="8" width="3" height="3"/>
    <rect x="192" y="8" width="3" height="3"/>
    <rect x="176" y="12" width="3" height="3"/>
    <rect x="180" y="12" width="3" height="3"/>
    <rect x="184" y="12" width="3" height="3"/>
    <rect x="188" y="12" width="3" height="3"/>
    <rect x="192" y="12" width="3" height="3"/>
    <rect x="176" y="16" width="3" height="3"/>
    <rect x="192" y="16" width="3" height="3"/>
    <rect x="176" y="20" width="3" height="3"/>
    <rect x="192" y="20" width="3" height="3"/>
    <rect x="176" y="24" width="3" height="3"/>
    <rect x="192" y="24" width="3" height="3"/>
</svg>
