<svg xmlns="http://www.w3.org/2000/svg" fill="#fff" viewBox="0 0 195 27"><rect width="3" height="3" x="0" y="0"/><rect width="3" height="3" x="4" y="0"/><rect width="3" height="3" x="8" y="0"/><rect width="3" height="3" x="12" y="0"/><rect width="3" height="3" x="0" y="4"/><rect width="3" height="3" x="16" y="4"/><rect width="3" height="3" x="0" y="8"/><rect width="3" height="3" x="16" y="8"/><rect width="3" height="3" x="0" y="12"/><rect width="3" height="3" x="4" y="12"/><rect width="3" height="3" x="8" y="12"/><rect width="3" height="3" x="12" y="12"/><rect width="3" height="3" x="0" y="16"/><rect width="3" height="3" x="16" y="16"/><rect width="3" height="3" x="0" y="20"/><rect width="3" height="3" x="16" y="20"/><rect width="3" height="3" x="0" y="24"/><rect width="3" height="3" x="4" y="24"/><rect width="3" height="3" x="8" y="24"/><rect width="3" height="3" x="12" y="24"/><rect width="3" height="3" x="22" y="0"/><rect width="3" height="3" x="22" y="4"/><rect width="3" height="3" x="22" y="8"/><rect width="3" height="3" x="22" y="12"/><rect width="3" height="3" x="22" y="16"/><rect width="3" height="3" x="22" y="20"/><rect width="3" height="3" x="22" y="24"/><rect width="3" height="3" x="26" y="24"/><rect width="3" height="3" x="30" y="24"/><rect width="3" height="3" x="34" y="24"/><rect width="3" height="3" x="38" y="24"/><rect width="3" height="3" x="48" y="0"/><rect width="3" height="3" x="52" y="0"/><rect width="3" height="3" x="56" y="0"/><rect width="3" height="3" x="44" y="4"/><rect width="3" height="3" x="60" y="4"/><rect width="3" height="3" x="44" y="8"/><rect width="3" height="3" x="60" y="8"/><rect width="3" height="3" x="44" y="12"/><rect width="3" height="3" x="60" y="12"/><rect width="3" height="3" x="44" y="16"/><rect width="3" height="3" x="60" y="16"/><rect width="3" height="3" x="44" y="20"/><rect width="3" height="3" x="60" y="20"/><rect width="3" height="3" x="48" y="24"/><rect width="3" height="3" x="52" y="24"/><rect width="3" height="3" x="56" y="24"/><rect width="3" height="3" x="66" y="0"/><rect width="3" height="3" x="82" y="0"/><rect width="3" height="3" x="66" y="4"/><rect width="3" height="3" x="82" y="4"/><rect width="3" height="3" x="70" y="8"/><rect width="3" height="3" x="78" y="8"/><rect width="3" height="3" x="74" y="12"/><rect width="3" height="3" x="70" y="16"/><rect width="3" height="3" x="78" y="16"/><rect width="3" height="3" x="66" y="20"/><rect width="3" height="3" x="82" y="20"/><rect width="3" height="3" x="66" y="24"/><rect width="3" height="3" x="82" y="24"/><rect width="3" height="3" x="92" y="0"/><rect width="3" height="3" x="96" y="0"/><rect width="3" height="3" x="100" y="0"/><rect width="3" height="3" x="104" y="0"/><rect width="3" height="3" x="88" y="4"/><rect width="3" height="3" x="88" y="8"/><rect width="3" height="3" x="92" y="12"/><rect width="3" height="3" x="96" y="12"/><rect width="3" height="3" x="100" y="12"/><rect width="3" height="3" x="104" y="16"/><rect width="3" height="3" x="104" y="20"/><rect width="3" height="3" x="88" y="24"/><rect width="3" height="3" x="92" y="24"/><rect width="3" height="3" x="96" y="24"/><rect width="3" height="3" x="100" y="24"/><rect width="3" height="3" x="110" y="0"/><rect width="3" height="3" x="126" y="0"/><rect width="3" height="3" x="110" y="4"/><rect width="3" height="3" x="114" y="4"/><rect width="3" height="3" x="122" y="4"/><rect width="3" height="3" x="126" y="4"/><rect width="3" height="3" x="110" y="8"/><rect width="3" height="3" x="118" y="8"/><rect width="3" height="3" x="126" y="8"/><rect width="3" height="3" x="110" y="12"/><rect width="3" height="3" x="126" y="12"/><rect width="3" height="3" x="110" y="16"/><rect width="3" height="3" x="126" y="16"/><rect width="3" height="3" x="110" y="20"/><rect width="3" height="3" x="126" y="20"/><rect width="3" height="3" x="110" y="24"/><rect width="3" height="3" x="126" y="24"/><rect width="3" height="3" x="132" y="0"/><rect width="3" height="3" x="136" y="0"/><rect width="3" height="3" x="140" y="0"/><rect width="3" height="3" x="144" y="0"/><rect width="3" height="3" x="148" y="0"/><rect width="3" height="3" x="140" y="4"/><rect width="3" height="3" x="140" y="8"/><rect width="3" height="3" x="140" y="12"/><rect width="3" height="3" x="140" y="16"/><rect width="3" height="3" x="140" y="20"/><rect width="3" height="3" x="132" y="24"/><rect width="3" height="3" x="136" y="24"/><rect width="3" height="3" x="140" y="24"/><rect width="3" height="3" x="144" y="24"/><rect width="3" height="3" x="148" y="24"/><rect width="3" height="3" x="154" y="0"/><rect width="3" height="3" x="158" y="0"/><rect width="3" height="3" x="162" y="0"/><rect width="3" height="3" x="166" y="0"/><rect width="3" height="3" x="170" y="0"/><rect width="3" height="3" x="162" y="4"/><rect width="3" height="3" x="162" y="8"/><rect width="3" height="3" x="162" y="12"/><rect width="3" height="3" x="162" y="16"/><rect width="3" height="3" x="162" y="20"/><rect width="3" height="3" x="162" y="24"/><rect width="3" height="3" x="176" y="0"/><rect width="3" height="3" x="192" y="0"/><rect width="3" height="3" x="176" y="4"/><rect width="3" height="3" x="192" y="4"/><rect width="3" height="3" x="176" y="8"/><rect width="3" height="3" x="192" y="8"/><rect width="3" height="3" x="176" y="12"/><rect width="3" height="3" x="180" y="12"/><rect width="3" height="3" x="184" y="12"/><rect width="3" height="3" x="188" y="12"/><rect width="3" height="3" x="192" y="12"/><rect width="3" height="3" x="176" y="16"/><rect width="3" height="3" x="192" y="16"/><rect width="3" height="3" x="176" y="20"/><rect width="3" height="3" x="192" y="20"/><rect width="3" height="3" x="176" y="24"/><rect width="3" height="3" x="192" y="24"/></svg>