<svg xmlns="http://www.w3.org/2000/svg" viewBox="0 0 27 27" fill="white">
    <rect x="0" y="0" width="3" height="3"/>
    <rect x="4" y="0" width="3" height="3"/>
    <rect x="8" y="0" width="3" height="3"/>
    <rect x="12" y="0" width="3" height="3"/>
    <rect x="16" y="0" width="3" height="3"/>
    <rect x="20" y="0" width="3" height="3"/>
    <rect x="0" y="4" width="3" height="3"/>
    <rect x="4" y="4" width="3" height="3"/>
    <rect x="20" y="4" width="3" height="3"/>
    <rect x="24" y="4" width="3" height="3"/>
    <rect x="0" y="8" width="3" height="3"/>
    <rect x="4" y="8" width="3" height="3"/>
    <rect x="20" y="8" width="3" height="3"/>
    <rect x="24" y="8" width="3" height="3"/>
    <rect x="0" y="12" width="3" height="3"/>
    <rect x="4" y="12" width="3" height="3"/>
    <rect x="8" y="12" width="3" height="3"/>
    <rect x="12" y="12" width="3" height="3"/>
    <rect x="16" y="12" width="3" height="3"/>
    <rect x="20" y="12" width="3" height="3"/>
    <rect x="0" y="16" width="3" height="3"/>
    <rect x="4" y="16" width="3" height="3"/>
    <rect x="20" y="16" width="3" height="3"/>
    <rect x="24" y="16" width="3" height="3"/>
    <rect x="0" y="20" width="3" height="3"/>
    <rect x="4" y="20" width="3" height="3"/>
    <rect x="20" y="20" width="3" height="3"/>
    <rect x="24" y="20" width="3" height="3"/>
    <rect x="0" y="24" width="3" height="3"/>
    <rect x="4" y="24" width="3" height="3"/>
    <rect x="8" y="24" width="3" height="3"/>
    <rect x="12" y="24" width="3" height="3"/>
    <rect x="16" y="24" width="3" height="3"/>
    <rect x="20" y="24" width="3" height="3"/>
</svg>
