<svg xmlns="http://www.w3.org/2000/svg" fill="#fff" viewBox="0 0 27 27"><rect width="3" height="3" x="0" y="0"/><rect width="3" height="3" x="4" y="0"/><rect width="3" height="3" x="8" y="0"/><rect width="3" height="3" x="12" y="0"/><rect width="3" height="3" x="16" y="0"/><rect width="3" height="3" x="20" y="0"/><rect width="3" height="3" x="0" y="4"/><rect width="3" height="3" x="4" y="4"/><rect width="3" height="3" x="20" y="4"/><rect width="3" height="3" x="24" y="4"/><rect width="3" height="3" x="0" y="8"/><rect width="3" height="3" x="4" y="8"/><rect width="3" height="3" x="20" y="8"/><rect width="3" height="3" x="24" y="8"/><rect width="3" height="3" x="0" y="12"/><rect width="3" height="3" x="4" y="12"/><rect width="3" height="3" x="8" y="12"/><rect width="3" height="3" x="12" y="12"/><rect width="3" height="3" x="16" y="12"/><rect width="3" height="3" x="20" y="12"/><rect width="3" height="3" x="0" y="16"/><rect width="3" height="3" x="4" y="16"/><rect width="3" height="3" x="20" y="16"/><rect width="3" height="3" x="24" y="16"/><rect width="3" height="3" x="0" y="20"/><rect width="3" height="3" x="4" y="20"/><rect width="3" height="3" x="20" y="20"/><rect width="3" height="3" x="24" y="20"/><rect width="3" height="3" x="0" y="24"/><rect width="3" height="3" x="4" y="24"/><rect width="3" height="3" x="8" y="24"/><rect width="3" height="3" x="12" y="24"/><rect width="3" height="3" x="16" y="24"/><rect width="3" height="3" x="20" y="24"/></svg>