<svg xmlns="http://www.w3.org/2000/svg" viewBox="0 0 35 35">
    <rect width="35" height="35" fill="#0a0a0a"/>
    <g fill="white">
    <rect x="4" y="4" width="3" height="3"/>
    <rect x="8" y="4" width="3" height="3"/>
    <rect x="12" y="4" width="3" height="3"/>
    <rect x="16" y="4" width="3" height="3"/>
    <rect x="20" y="4" width="3" height="3"/>
    <rect x="24" y="4" width="3" height="3"/>
    <rect x="4" y="8" width="3" height="3"/>
    <rect x="8" y="8" width="3" height="3"/>
    <rect x="24" y="8" width="3" height="3"/>
    <rect x="28" y="8" width="3" height="3"/>
    <rect x="4" y="12" width="3" height="3"/>
    <rect x="8" y="12" width="3" height="3"/>
    <rect x="24" y="12" width="3" height="3"/>
    <rect x="28" y="12" width="3" height="3"/>
    <rect x="4" y="16" width="3" height="3"/>
    <rect x="8" y="16" width="3" height="3"/>
    <rect x="12" y="16" width="3" height="3"/>
    <rect x="16" y="16" width="3" height="3"/>
    <rect x="20" y="16" width="3" height="3"/>
    <rect x="24" y="16" width="3" height="3"/>
    <rect x="4" y="20" width="3" height="3"/>
    <rect x="8" y="20" width="3" height="3"/>
    <rect x="24" y="20" width="3" height="3"/>
    <rect x="28" y="20" width="3" height="3"/>
    <rect x="4" y="24" width="3" height="3"/>
    <rect x="8" y="24" width="3" height="3"/>
    <rect x="24" y="24" width="3" height="3"/>
    <rect x="28" y="24" width="3" height="3"/>
    <rect x="4" y="28" width="3" height="3"/>
    <rect x="8" y="28" width="3" height="3"/>
    <rect x="12" y="28" width="3" height="3"/>
    <rect x="16" y="28" width="3" height="3"/>
    <rect x="20" y="28" width="3" height="3"/>
    <rect x="24" y="28" width="3" height="3"/>
    </g>
</svg>
