<svg xmlns="http://www.w3.org/2000/svg" viewBox="0 0 35 35"><rect width="35" height="35" fill="#0a0a0a"/><g fill="#fff"><rect width="3" height="3" x="4" y="4"/><rect width="3" height="3" x="8" y="4"/><rect width="3" height="3" x="12" y="4"/><rect width="3" height="3" x="16" y="4"/><rect width="3" height="3" x="20" y="4"/><rect width="3" height="3" x="24" y="4"/><rect width="3" height="3" x="4" y="8"/><rect width="3" height="3" x="8" y="8"/><rect width="3" height="3" x="24" y="8"/><rect width="3" height="3" x="28" y="8"/><rect width="3" height="3" x="4" y="12"/><rect width="3" height="3" x="8" y="12"/><rect width="3" height="3" x="24" y="12"/><rect width="3" height="3" x="28" y="12"/><rect width="3" height="3" x="4" y="16"/><rect width="3" height="3" x="8" y="16"/><rect width="3" height="3" x="12" y="16"/><rect width="3" height="3" x="16" y="16"/><rect width="3" height="3" x="20" y="16"/><rect width="3" height="3" x="24" y="16"/><rect width="3" height="3" x="4" y="20"/><rect width="3" height="3" x="8" y="20"/><rect width="3" height="3" x="24" y="20"/><rect width="3" height="3" x="28" y="20"/><rect width="3" height="3" x="4" y="24"/><rect width="3" height="3" x="8" y="24"/><rect width="3" height="3" x="24" y="24"/><rect width="3" height="3" x="28" y="24"/><rect width="3" height="3" x="4" y="28"/><rect width="3" height="3" x="8" y="28"/><rect width="3" height="3" x="12" y="28"/><rect width="3" height="3" x="16" y="28"/><rect width="3" height="3" x="20" y="28"/><rect width="3" height="3" x="24" y="28"/></g></svg>